#!OML:ASF I:\Actors\actors\Patient Classification 1\Patient 1\Session 1\Subject1.ASF
:FULLY-SPECIFIED
:DEGREES
632
root -0.591973 17.5384 7.75592 7.62743 0.116744 -7.38691
lowerback 1.94636 3.35032 5.71417
upperback -8.13958 5.0181 1.0759
thorax -9.3366 2.08088 -2.52167
lowerneck -16.1306 -4.83119 -1.432
upperneck 26.836 -7.90339 4.67402
head 11.7029 -3.11173 0.796896
rclavicle 1.00883e-014 1.15295e-014
rhumerus -16.0232 23.662 -95.3282
rradius 100.316
rwrist -53.5411
rhand -4.60017 -74.462
rfingers 7.12502
rthumb 21.1775 -256.675
lclavicle 1.00883e-014 1.15295e-014
lhumerus -39.1874 -29.7969 107.633
lradius 108.725
lwrist 71.6668
lhand -44.1092 -5.57233
lfingers 7.12502
lthumb -16.9263 23.7101
rfemur -0.383153 23.2242 26.1287
rtibia 0.756694
rfoot -12.957 -23.7844
rtoes 0.470678
lfemur 5.98889 -40.209 -14.7234
ltibia -3.74204
lfoot -19.0274 48.6824
ltoes 9.31605
633
root -0.591491 17.534 7.75842 7.56548 -0.102513 -7.40049
lowerback 1.98878 3.33683 5.66694
upperback -8.10267 5.00638 1.18641
thorax -9.33534 2.0839 -2.37962
lowerneck -16.0921 -4.5293 -1.21012
upperneck 26.9415 -7.46367 4.4246
head 11.6976 -2.92096 0.736059
rclavicle -8.94531e-016 1.47101e-014
rhumerus -17.28 24.089 -96.5799
rradius 102.962
rwrist -54.2007
rhand -4.4197 -73.4685
rfingers 7.12502
rthumb 21.3509 -257.688
lclavicle -8.94531e-016 1.47101e-014
lhumerus -39.3633 -29.4798 107.87
lradius 108.639
lwrist 72.3979
lhand -45.8616 -5.77188
lfingers 7.12502
lthumb -18.6126 23.3577
rfemur -0.315152 23.1777 26.1526
rtibia 0.772147
rfoot -12.9174 -23.5201
rtoes 0.2906
lfemur 6.27265 -40.2469 -14.9176
ltibia -3.81208
lfoot -19.2285 48.9166
ltoes 9.433
634
root -0.590002 17.5302 7.75415 7.5817 -0.401845 -7.24109
lowerback 2.12765 3.31889 5.4155
upperback -8.16477 4.98666 1.28384
thorax -9.51607 2.09011 -2.14893
lowerneck -15.9538 -4.18857 -0.945242
upperneck 27.0968 -6.94802 4.0593
head 11.6844 -2.70718 0.63828
rclavicle -1.15544e-014 -3.63776e-014
rhumerus -18.3028 24.7753 -97.7593
rradius 105.827
rwrist -50.5911
rhand -4.03651 -72.6438
rfingers 7.12502
rthumb 21.7189 -258.555
lclavicle -1.15544e-014 -3.63776e-014
lhumerus -39.7557 -28.9465 108.138
lradius 108.529
lwrist 72.7325
lhand -47.112 -5.16581
lfingers 7.12502
lthumb -19.815 23.8441
rfemur -0.426249 23.1951 25.886
rtibia 0.85894
rfoot -12.9058 -23.2317
rtoes 0.42417
lfemur 6.46335 -40.5436 -15.3007
ltibia -3.81826
lfoot -19.7372 49.3758
ltoes 9.9782
635
root -0.587218 17.5282 7.74088 7.60386 -0.831363 -6.88598
lowerback 2.45107 3.29259 4.9577
upperback -8.29805 4.95234 1.32621
thorax -9.89809 2.09554 -1.87666
lowerneck -15.7181 -3.77368 -0.426427
upperneck 27.33 -6.33619 3.47728
head 11.6652 -2.45125 0.433008
rclavicle 8.10048e-015 -9.54166e-015
rhumerus -18.1789 26.6021 -98.0137
rradius 107.826
rwrist -45.2134
rhand -2.98639 -69.7567
rfingers 7.12502
rthumb 22.727 -261.562
lclavicle 8.10048e-015 -9.54166e-015
lhumerus -40.3079 -28.3335 108.328
lradius 108.383
lwrist 73.0094
lhand -47.7418 -4.76093
lfingers 7.12502
lthumb -20.4203 24.1853
rfemur -0.673341 23.368 25.3252
rtibia 1.05291
rfoot -12.8786 -22.9977
rtoes 0.553843
lfemur 6.61705 -40.9976 -15.9101
ltibia -3.77168
lfoot -20.5321 50.0141
ltoes 10.9059
636
root -0.580095 17.5291 7.75692 7.8144 -0.65512 -7.16741
lowerback 2.03773 3.1062 5.37705
upperback -8.40464 4.71847 1.46791
thorax -9.77009 1.95855 -1.91053
lowerneck -15.535 -3.39361 -0.0147199
upperneck 27.6605 -5.78347 3.01722
head 11.7117 -2.21368 0.278496
rclavicle 1.07592e-014 -1.78906e-015
rhumerus -18.3216 27.8782 -98.4811
rradius 110.104
rwrist -38.6364
rhand -0.862248 -67.0516
rfingers 7.12502
rthumb 24.7642 -264.532
lclavicle 1.07592e-014 -1.78906e-015
lhumerus -40.8789 -27.8517 108.392
lradius 108.265
lwrist 73.3851
lhand -47.9402 -4.8082
lfingers 7.12502
lthumb -20.611 24.1175
rfemur -0.750004 23.2114 25.5993
rtibia 0.913799
rfoot -12.8594 -22.9588
rtoes 0.530561
lfemur 6.47351 -41.1933 -15.5265
ltibia -3.84466
lfoot -20.3939 50.1205
ltoes 10.6824
637
root -0.571138 17.5303 7.76485 7.9569 -0.51338 -7.24069
lowerback 1.75702 2.91294 5.68683
upperback -8.47195 4.46316 1.4992
thorax -9.67888 1.81314 -2.0089
lowerneck -15.4288 -2.97797 0.349189
upperneck 28.0804 -5.23282 2.7718
head 11.8244 -1.95081 0.207905
rclavicle 3.68497e-014 2.38542e-015
rhumerus -18.605 28.7405 -99.1002
rradius 112.404
rwrist -31.6718
rhand 1.68864 -64.3515
rfingers 7.12502
rthumb 27.2068 -267.59
lclavicle 3.68497e-014 2.38542e-015
lhumerus -41.391 -27.5855 108.375
lradius 108.274
lwrist 74.0468
lhand -47.9234 -5.54166
lfingers 7.12502
lthumb -20.5948 23.3858
rfemur -0.827436 23.3421 25.6361
rtibia 0.830441
rfoot -12.9178 -23.1901
rtoes 0.75199
lfemur 6.30619 -41.4443 -15.383
ltibia -3.8125
lfoot -20.4394 50.2103
ltoes 10.6918
638
root -0.564532 17.5327 7.7694 8.03292 -0.560815 -7.21523
lowerback 1.51811 2.77599 5.84741
upperback -8.47728 4.26927 1.50142
thorax -9.54715 1.71014 -2.06392
lowerneck -15.4519 -2.60416 0.582722
upperneck 28.6426 -4.75272 2.65959
head 12.0337 -1.71158 0.195782
rclavicle 1.98785e-016 5.1684e-015
rhumerus -17.8125 31.2613 -98.5016
rradius 114.203
rwrist -25.0346
rhand 2.72625 -61.1921
rfingers 7.12502
rthumb 28.1989 -89.0908
lclavicle 1.98785e-016 5.1684e-015
lhumerus -41.7215 -27.4174 108.24
lradius 108.317
lwrist 74.9702
lhand -47.7549 -6.57043
lfingers 7.12502
lthumb -20.4328 22.3745
rfemur -0.918027 23.4769 25.5558
rtibia 0.848692
rfoot -12.9422 -23.2653
rtoes 0.94513
lfemur 6.30435 -41.7043 -15.4681
ltibia -3.78947
lfoot -20.8626 50.4022
ltoes 11.2255
639
root -0.561083 17.535 7.77284 8.05977 -0.812901 -7.22919
lowerback 1.35798 2.74411 5.96339
upperback -8.49395 4.21988 1.49561
thorax -9.46713 1.679 -2.12088
lowerneck -15.3042 -2.27234 0.948058
upperneck 29.1472 -4.31697 2.40339
head 12.182 -1.50046 0.103559
rclavicle 4.3509e-014 5.03919e-014
rhumerus -16.9208 34.0991 -97.5767
rradius 115.834
rwrist -18.2632
rhand 2.83545 -59.067
rfingers 7.12502
rthumb 28.3033 -86.9484
lclavicle 4.3509e-014 5.03919e-014
lhumerus -41.9805 -27.3094 108.055
lradius 108.279
lwrist 75.9106
lhand -47.5334 -7.43819
lfingers 7.12502
lthumb -20.22 21.5294
rfemur -0.994471 23.5073 25.5252
rtibia 0.912326
rfoot -12.8944 -23.0469
rtoes 0.871864
lfemur 6.49787 -41.8531 -15.6231
ltibia -3.84982
lfoot -21.465 50.6732
ltoes 11.8837
640
root -0.558958 17.5353 7.77427 8.03682 -1.14802 -7.22407
lowerback 1.24444 2.74945 6.04607
upperback -8.49961 4.2192 1.46314
thorax -9.39867 1.67277 -2.19427
lowerneck -14.8856 -1.9304 1.58675
upperneck 29.399 -3.83794 1.87961
head 12.1641 -1.28296 -0.126716
rclavicle 2.29845e-014 1.47101e-014
rhumerus -14.9095 38.0373 -95.4516
rradius 117.106
rwrist -12.4927
rhand 2.22091 -58.9591
rfingers 7.12502
rthumb 27.7158 -86.9365
lclavicle 2.29845e-014 1.47101e-014
lhumerus -42.1918 -27.2294 107.831
lradius 108.206
lwrist 76.5607
lhand -47.2777 -7.94574
lfingers 7.12502
lthumb -19.9742 21.0477
rfemur -1.01826 23.4912 25.4833
rtibia 0.959047
rfoot -12.8004 -22.7248
rtoes 0.507122
lfemur 6.79788 -41.9273 -15.8722
ltibia -3.94361
lfoot -21.9691 50.9852
ltoes 12.37
